<svg width="112" height="15" viewBox="0 0 112 15" fill="none" xmlns="http://www.w3.org/2000/svg">
<path d="M9.288 0.319935V11.7839H7.736V6.56794H1.552V11.7839H-5.96046e-07V0.319935H1.552V5.43194H7.736V0.319935H9.288ZM19.9707 1.62393H16.2587V11.7839H14.7147V1.62393H10.9947V0.319935H19.9707V1.62393ZM33.5999 0.319935V11.7839H32.2399V3.35993C32.2399 3.24794 32.2425 3.12794 32.2479 2.99994C32.2585 2.87193 32.2692 2.74127 32.2799 2.60793L28.3439 9.77594C28.2212 10.0159 28.0345 10.1359 27.7839 10.1359H27.5599C27.3092 10.1359 27.1225 10.0159 26.9999 9.77594L22.9839 2.57594C23.0159 2.8586 23.0319 3.11994 23.0319 3.35993V11.7839H21.6719V0.319935H22.8159C22.9545 0.319935 23.0612 0.333268 23.1359 0.359935C23.2105 0.386601 23.2825 0.461268 23.3519 0.583935L27.3119 7.63994C27.3759 7.76794 27.4372 7.90127 27.4959 8.03994C27.5599 8.1786 27.6185 8.31994 27.6719 8.46394C27.7252 8.31994 27.7812 8.1786 27.8399 8.03994C27.8985 7.89594 27.9625 7.75994 28.0319 7.63194L31.9199 0.583935C31.9839 0.461268 32.0532 0.386601 32.1279 0.359935C32.2079 0.333268 32.3172 0.319935 32.4559 0.319935H33.5999ZM43.0352 10.4799V11.7839H36.5312V0.319935H38.0752V10.4799H43.0352ZM53.9161 7.52794L52.1161 2.86394C52.0628 2.72527 52.0068 2.56527 51.9481 2.38393C51.8895 2.19727 51.8335 1.99994 51.7801 1.79193C51.6681 2.22393 51.5535 2.58393 51.4361 2.87193L49.6361 7.52794H53.9161ZM57.1481 11.7839H55.9481C55.8095 11.7839 55.6975 11.7493 55.6121 11.6799C55.5268 11.6106 55.4628 11.5226 55.4201 11.4159L54.3481 8.64794H49.2041L48.1321 11.4159C48.1001 11.5119 48.0388 11.5973 47.9481 11.6719C47.8575 11.7466 47.7455 11.7839 47.6121 11.7839H46.4121L50.9961 0.319935H52.5641L57.1481 11.7839ZM63.7415 5.11994C63.6988 5.1786 63.6562 5.22394 63.6135 5.25594C63.5708 5.28794 63.5122 5.30394 63.4375 5.30394C63.3575 5.30394 63.2695 5.27194 63.1735 5.20794C63.0775 5.1386 62.9575 5.06394 62.8135 4.98394C62.6748 4.90394 62.5015 4.83194 62.2935 4.76794C62.0908 4.6986 61.8402 4.66394 61.5415 4.66394C61.1415 4.66394 60.7895 4.73594 60.4855 4.87994C60.1815 5.0186 59.9255 5.22127 59.7175 5.48794C59.5148 5.7546 59.3602 6.07727 59.2535 6.45594C59.1522 6.8346 59.1015 7.2586 59.1015 7.72794C59.1015 8.2186 59.1575 8.65594 59.2695 9.03994C59.3815 9.4186 59.5388 9.7386 59.7415 9.99994C59.9495 10.2559 60.1975 10.4533 60.4855 10.5919C60.7788 10.7253 61.1068 10.7919 61.4695 10.7919C61.8162 10.7919 62.1015 10.7519 62.3255 10.6719C62.5495 10.5866 62.7335 10.4933 62.8775 10.3919C63.0268 10.2906 63.1495 10.1999 63.2455 10.1199C63.3468 10.0346 63.4455 9.99194 63.5415 9.99194C63.6588 9.99194 63.7495 10.0373 63.8135 10.1279L64.2135 10.6479C64.0375 10.8666 63.8375 11.0533 63.6135 11.2079C63.3895 11.3626 63.1468 11.4933 62.8855 11.5999C62.6295 11.7013 62.3602 11.7759 62.0775 11.8239C61.7948 11.8719 61.5068 11.8959 61.2135 11.8959C60.7068 11.8959 60.2348 11.8026 59.7975 11.6159C59.3655 11.4293 58.9895 11.1599 58.6695 10.8079C58.3495 10.4506 58.0988 10.0133 57.9175 9.49594C57.7362 8.9786 57.6455 8.38927 57.6455 7.72794C57.6455 7.12527 57.7282 6.56794 57.8935 6.05594C58.0642 5.54394 58.3095 5.10394 58.6295 4.73594C58.9548 4.3626 59.3522 4.07194 59.8215 3.86393C60.2962 3.65594 60.8402 3.55194 61.4535 3.55194C62.0242 3.55194 62.5255 3.64527 62.9575 3.83194C63.3948 4.01327 63.7815 4.27194 64.1175 4.60794L63.7415 5.11994ZM70.1341 8.13594C69.4781 8.15727 68.9181 8.2106 68.4541 8.29594C67.9955 8.37594 67.6195 8.4826 67.3261 8.61594C67.0381 8.74927 66.8275 8.9066 66.6941 9.08794C66.5661 9.26927 66.5021 9.47194 66.5021 9.69594C66.5021 9.90927 66.5368 10.0933 66.6061 10.2479C66.6755 10.4026 66.7688 10.5306 66.8861 10.6319C67.0088 10.7279 67.1501 10.7999 67.3101 10.8479C67.4755 10.8906 67.6515 10.9119 67.8381 10.9119C68.0888 10.9119 68.3181 10.8879 68.5261 10.8399C68.7341 10.7866 68.9288 10.7119 69.1101 10.6159C69.2968 10.5199 69.4728 10.4053 69.6381 10.2719C69.8088 10.1386 69.9741 9.9866 70.1341 9.81594V8.13594ZM65.5341 4.82394C65.9821 4.39194 66.4648 4.06927 66.9821 3.85594C67.4995 3.6426 68.0728 3.53594 68.7021 3.53594C69.1555 3.53594 69.5581 3.6106 69.9101 3.75994C70.2621 3.90927 70.5581 4.11727 70.7981 4.38393C71.0381 4.6506 71.2195 4.97327 71.3421 5.35194C71.4648 5.7306 71.5261 6.1466 71.5261 6.59994V11.7839H70.8941C70.7555 11.7839 70.6488 11.7626 70.5741 11.7199C70.4995 11.6719 70.4408 11.5813 70.3981 11.4479L70.2381 10.6799C70.0248 10.8773 69.8168 11.0533 69.6141 11.2079C69.4115 11.3573 69.1981 11.4853 68.9741 11.5919C68.7501 11.6933 68.5101 11.7706 68.2541 11.8239C68.0035 11.8826 67.7235 11.9119 67.4141 11.9119C67.0995 11.9119 66.8035 11.8693 66.5261 11.7839C66.2488 11.6933 66.0061 11.5599 65.7981 11.3839C65.5955 11.2079 65.4328 10.9866 65.3101 10.7199C65.1928 10.4479 65.1341 10.1279 65.1341 9.75994C65.1341 9.43994 65.2221 9.13327 65.3981 8.83994C65.5741 8.54127 65.8595 8.27727 66.2541 8.04794C66.6488 7.8186 67.1635 7.63194 67.7981 7.48794C68.4328 7.3386 69.2115 7.25327 70.1341 7.23194V6.59994C70.1341 5.9706 69.9981 5.49594 69.7261 5.17594C69.4541 4.8506 69.0568 4.68794 68.5341 4.68794C68.1821 4.68794 67.8861 4.73327 67.6461 4.82394C67.4115 4.90927 67.2061 5.00794 67.0301 5.11994C66.8595 5.2266 66.7101 5.32527 66.5821 5.41594C66.4595 5.50127 66.3368 5.54394 66.2141 5.54394C66.1181 5.54394 66.0355 5.51994 65.9661 5.47194C65.8968 5.4186 65.8381 5.3546 65.7901 5.27994L65.5341 4.82394ZM78.9752 5.60794C78.7086 5.2506 78.4206 5.0026 78.1112 4.86393C77.8019 4.71994 77.4552 4.64794 77.0712 4.64794C76.3192 4.64794 75.7406 4.91727 75.3352 5.45594C74.9299 5.9946 74.7272 6.7626 74.7272 7.75994C74.7272 8.28794 74.7726 8.74127 74.8632 9.11994C74.9539 9.49327 75.0872 9.8026 75.2632 10.0479C75.4392 10.2879 75.6552 10.4639 75.9112 10.5759C76.1672 10.6879 76.4579 10.7439 76.7832 10.7439C77.2526 10.7439 77.6606 10.6373 78.0072 10.4239C78.3592 10.2106 78.6819 9.90927 78.9752 9.51994V5.60794ZM80.3992 -6.48499e-05V11.7839H79.5512C79.3486 11.7839 79.2206 11.6853 79.1672 11.4879L79.0392 10.5039C78.6926 10.9199 78.2979 11.2559 77.8552 11.5119C77.4126 11.7679 76.9006 11.8959 76.3192 11.8959C75.8552 11.8959 75.4339 11.8079 75.0552 11.6319C74.6766 11.4506 74.3539 11.1866 74.0872 10.8399C73.8206 10.4933 73.6152 10.0613 73.4712 9.54394C73.3272 9.0266 73.2552 8.43194 73.2552 7.75994C73.2552 7.1626 73.3352 6.60794 73.4952 6.09594C73.6552 5.5786 73.8846 5.1306 74.1832 4.75194C74.4819 4.37327 74.8472 4.07727 75.2792 3.86393C75.7166 3.64527 76.2072 3.53594 76.7512 3.53594C77.2472 3.53594 77.6712 3.62127 78.0232 3.79193C78.3806 3.95727 78.6979 4.18927 78.9752 4.48794V-6.48499e-05H80.3992ZM88.0724 6.84794C88.0724 6.51727 88.0244 6.21594 87.9284 5.94394C87.8377 5.6666 87.7017 5.42927 87.5204 5.23194C87.3444 5.02927 87.1284 4.8746 86.8724 4.76794C86.6164 4.65594 86.3257 4.59994 86.0004 4.59994C85.3177 4.59994 84.7764 4.79994 84.3764 5.19994C83.9817 5.5946 83.7364 6.14394 83.6404 6.84794H88.0724ZM89.2244 10.6479C89.0484 10.8613 88.8377 11.0479 88.5924 11.2079C88.347 11.3626 88.083 11.4906 87.8004 11.5919C87.523 11.6933 87.235 11.7679 86.9364 11.8159C86.6377 11.8693 86.3417 11.8959 86.0484 11.8959C85.4884 11.8959 84.971 11.8026 84.4964 11.6159C84.027 11.4239 83.619 11.1466 83.2724 10.7839C82.931 10.4159 82.6644 9.9626 82.4724 9.42394C82.2804 8.88527 82.1844 8.2666 82.1844 7.56794C82.1844 7.0026 82.2697 6.4746 82.4404 5.98394C82.6164 5.49327 82.867 5.06927 83.1924 4.71194C83.5177 4.34927 83.915 4.0666 84.3844 3.86393C84.8537 3.65594 85.3817 3.55194 85.9684 3.55194C86.4537 3.55194 86.9017 3.6346 87.3124 3.79994C87.7284 3.95994 88.0857 4.1946 88.3844 4.50394C88.6884 4.80794 88.9257 5.1866 89.0964 5.63994C89.267 6.08794 89.3524 6.59994 89.3524 7.17594C89.3524 7.39994 89.3284 7.54927 89.2804 7.62394C89.2324 7.6986 89.1417 7.73594 89.0084 7.73594H83.5924C83.6084 8.24794 83.6777 8.69327 83.8004 9.07194C83.9284 9.4506 84.1044 9.76794 84.3284 10.0239C84.5524 10.2746 84.819 10.4639 85.1284 10.5919C85.4377 10.7146 85.7844 10.7759 86.1684 10.7759C86.5257 10.7759 86.8324 10.7359 87.0884 10.6559C87.3497 10.5706 87.5737 10.4799 87.7604 10.3839C87.947 10.2879 88.1017 10.1999 88.2244 10.1199C88.3524 10.0346 88.4617 9.99194 88.5524 9.99194C88.6697 9.99194 88.7604 10.0373 88.8244 10.1279L89.2244 10.6479ZM91.1015 11.7839V3.67994H91.9575C92.1602 3.67994 92.2855 3.7786 92.3335 3.97593L92.4375 4.80794C92.7362 4.43994 93.0722 4.1386 93.4455 3.90393C93.8188 3.66927 94.2508 3.55194 94.7415 3.55194C95.2855 3.55194 95.7255 3.70394 96.0615 4.00794C96.4028 4.31194 96.6482 4.7226 96.7975 5.23994C96.9148 4.9466 97.0642 4.69327 97.2455 4.47994C97.4322 4.2666 97.6402 4.0906 97.8695 3.95194C98.0988 3.81327 98.3415 3.71194 98.5975 3.64793C98.8588 3.58394 99.1228 3.55194 99.3895 3.55194C99.8162 3.55194 100.195 3.62127 100.525 3.75994C100.861 3.89327 101.144 4.0906 101.373 4.35194C101.608 4.61327 101.787 4.93594 101.91 5.31994C102.032 5.6986 102.094 6.13327 102.094 6.62394V11.7839H100.661V6.62394C100.661 5.98927 100.523 5.50927 100.245 5.18394C99.9682 4.85327 99.5682 4.68794 99.0455 4.68794C98.8108 4.68794 98.5868 4.7306 98.3735 4.81594C98.1655 4.89594 97.9815 5.01594 97.8215 5.17594C97.6615 5.33594 97.5335 5.5386 97.4375 5.78394C97.3468 6.02394 97.3015 6.30394 97.3015 6.62394V11.7839H95.8695V6.62394C95.8695 5.97327 95.7388 5.48794 95.4775 5.16794C95.2162 4.84794 94.8348 4.68794 94.3335 4.68794C93.9815 4.68794 93.6562 4.78394 93.3575 4.97594C93.0588 5.1626 92.7842 5.4186 92.5335 5.74394V11.7839H91.1015ZM111.047 3.67994L106.527 14.1759C106.479 14.2826 106.417 14.3679 106.343 14.4319C106.273 14.4959 106.164 14.5279 106.015 14.5279H104.959L106.439 11.3119L103.095 3.67994H104.327C104.449 3.67994 104.545 3.71194 104.615 3.77594C104.689 3.8346 104.74 3.90127 104.767 3.97593L106.935 9.07994C107.02 9.30394 107.092 9.5386 107.151 9.78394C107.225 9.53327 107.305 9.29594 107.391 9.07194L109.495 3.97593C109.527 3.8906 109.58 3.82127 109.655 3.76793C109.735 3.70927 109.823 3.67994 109.919 3.67994H111.047Z" fill="#444444"/>
</svg>
